<!-- Generated by IcoMoon.io -->
<svg version="1.1" xmlns="http://www.w3.org/2000/svg" width="16" height="32" viewBox="0 0 16 32">
<title>left</title>
<path d="M0.196 15.242c0 0.049-0.049 0.098-0.049 0.147s-0.049 0.098-0.049 0.147c0 0.049 0 0.098-0.049 0.147 0 0.049 0 0.098-0.049 0.147 0 0.049 0 0.098 0 0.147s0 0.098 0 0.147c0 0.049 0 0.098 0.049 0.147 0 0.049 0 0.098 0.049 0.147 0 0.049 0.049 0.098 0.049 0.147s0.049 0.098 0.049 0.147c0.049 0.049 0.049 0.098 0.098 0.147s0.049 0.098 0.098 0.098c0 0 0.049 0.049 0.049 0.049l12.526 14.239c0.587 0.685 1.615 0.734 2.3 0.147s0.734-1.615 0.147-2.3l-11.597-13.064 11.597-13.113c0.587-0.685 0.538-1.712-0.147-2.3s-1.712-0.538-2.3 0.147l-12.526 14.141c0 0-0.049 0.049-0.049 0.049-0.049 0.049-0.049 0.098-0.098 0.098-0.049 0.098-0.098 0.147-0.098 0.196z"></path>
</svg>
